<svg width="52" height="45" viewBox="0 0 52 45" fill="none" xmlns="http://www.w3.org/2000/svg">
<path d="M0.18 22.56C0.18 15.64 1.42 10.22 3.9 6.3C6.42 2.38 10.58 0.419998 16.38 0.419998C22.18 0.419998 26.32 2.38 28.8 6.3C31.32 10.22 32.58 15.64 32.58 22.56C32.58 29.52 31.32 34.98 28.8 38.94C26.32 42.9 22.18 44.88 16.38 44.88C10.58 44.88 6.42 42.9 3.9 38.94C1.42 34.98 0.18 29.52 0.18 22.56ZM24.3 22.56C24.3 19.6 24.1 17.12 23.7 15.12C23.34 13.08 22.58 11.42 21.42 10.14C20.3 8.86 18.62 8.22 16.38 8.22C14.14 8.22 12.44 8.86 11.28 10.14C10.16 11.42 9.4 13.08 9 15.12C8.64 17.12 8.46 19.6 8.46 22.56C8.46 25.6 8.64 28.16 9 30.24C9.36 32.28 10.12 33.94 11.28 35.22C12.44 36.46 14.14 37.08 16.38 37.08C18.62 37.08 20.32 36.46 21.48 35.22C22.64 33.94 23.4 32.28 23.76 30.24C24.12 28.16 24.3 25.6 24.3 22.56ZM36.7491 9V1.26H51.2091V45H42.5691V9H36.7491Z" fill="#E1E4E8"/>
</svg>
