<svg width="67" height="45" viewBox="0 0 67 45" fill="none" xmlns="http://www.w3.org/2000/svg">
<path d="M0.18 22.56C0.18 15.64 1.42 10.22 3.9 6.3C6.42 2.38 10.58 0.419998 16.38 0.419998C22.18 0.419998 26.32 2.38 28.8 6.3C31.32 10.22 32.58 15.64 32.58 22.56C32.58 29.52 31.32 34.98 28.8 38.94C26.32 42.9 22.18 44.88 16.38 44.88C10.58 44.88 6.42 42.9 3.9 38.94C1.42 34.98 0.18 29.52 0.18 22.56ZM24.3 22.56C24.3 19.6 24.1 17.12 23.7 15.12C23.34 13.08 22.58 11.42 21.42 10.14C20.3 8.86 18.62 8.22 16.38 8.22C14.14 8.22 12.44 8.86 11.28 10.14C10.16 11.42 9.4 13.08 9 15.12C8.64 17.12 8.46 19.6 8.46 22.56C8.46 25.6 8.64 28.16 9 30.24C9.36 32.28 10.12 33.94 11.28 35.22C12.44 36.46 14.14 37.08 16.38 37.08C18.62 37.08 20.32 36.46 21.48 35.22C22.64 33.94 23.4 32.28 23.76 30.24C24.12 28.16 24.3 25.6 24.3 22.56ZM40.4091 35.52C44.2491 32.32 47.3091 29.66 49.5891 27.54C51.8691 25.38 53.7691 23.14 55.2891 20.82C56.8091 18.5 57.5691 16.22 57.5691 13.98C57.5691 11.94 57.0891 10.34 56.1291 9.18C55.1691 8.02 53.6891 7.44 51.6891 7.44C49.6891 7.44 48.1491 8.12 47.0691 9.48C45.9891 10.8 45.4291 12.62 45.3891 14.94H37.2291C37.3891 10.14 38.8091 6.5 41.4891 4.02C44.2091 1.54 47.6491 0.299996 51.8091 0.299996C56.3691 0.299996 59.8691 1.52 62.3091 3.96C64.7491 6.36 65.9691 9.54 65.9691 13.5C65.9691 16.62 65.1291 19.6 63.4491 22.44C61.7691 25.28 59.8491 27.76 57.6891 29.88C55.5291 31.96 52.7091 34.48 49.2291 37.44H66.9291V44.4H37.2891V38.16L40.4091 35.52Z" fill="#E1E4E8"/>
</svg>
