<svg width="68" height="46" viewBox="0 0 68 46" fill="none" xmlns="http://www.w3.org/2000/svg">
<path d="M0.18 22.56C0.18 15.64 1.42 10.22 3.9 6.3C6.42 2.38 10.58 0.419998 16.38 0.419998C22.18 0.419998 26.32 2.38 28.8 6.3C31.32 10.22 32.58 15.64 32.58 22.56C32.58 29.52 31.32 34.98 28.8 38.94C26.32 42.9 22.18 44.88 16.38 44.88C10.58 44.88 6.42 42.9 3.9 38.94C1.42 34.98 0.18 29.52 0.18 22.56ZM24.3 22.56C24.3 19.6 24.1 17.12 23.7 15.12C23.34 13.08 22.58 11.42 21.42 10.14C20.3 8.86 18.62 8.22 16.38 8.22C14.14 8.22 12.44 8.86 11.28 10.14C10.16 11.42 9.4 13.08 9 15.12C8.64 17.12 8.46 19.6 8.46 22.56C8.46 25.6 8.64 28.16 9 30.24C9.36 32.28 10.12 33.94 11.28 35.22C12.44 36.46 14.14 37.08 16.38 37.08C18.62 37.08 20.32 36.46 21.48 35.22C22.64 33.94 23.4 32.28 23.76 30.24C24.12 28.16 24.3 25.6 24.3 22.56ZM37.8891 12.78C38.0891 8.78 39.4891 5.7 42.0891 3.54C44.7291 1.34 48.1891 0.239997 52.4691 0.239997C55.3891 0.239997 57.8891 0.759997 59.9691 1.8C62.0491 2.8 63.6091 4.18 64.6491 5.94C65.7291 7.66 66.2691 9.62 66.2691 11.82C66.2691 14.34 65.6091 16.48 64.2891 18.24C63.0091 19.96 61.4691 21.12 59.6691 21.72V21.96C61.9891 22.68 63.7891 23.96 65.0691 25.8C66.3891 27.64 67.0491 30 67.0491 32.88C67.0491 35.28 66.4891 37.42 65.3691 39.3C64.2891 41.18 62.6691 42.66 60.5091 43.74C58.3891 44.78 55.8291 45.3 52.8291 45.3C48.3091 45.3 44.6291 44.16 41.7891 41.88C38.9491 39.6 37.4491 36.24 37.2891 31.8H45.4491C45.5291 33.76 46.1891 35.34 47.4291 36.54C48.7091 37.7 50.4491 38.28 52.6491 38.28C54.6891 38.28 56.2491 37.72 57.3291 36.6C58.4491 35.44 59.0091 33.96 59.0091 32.16C59.0091 29.76 58.2491 28.04 56.7291 27C55.2091 25.96 52.8491 25.44 49.6491 25.44H47.9091V18.54H49.6491C55.3291 18.54 58.1691 16.64 58.1691 12.84C58.1691 11.12 57.6491 9.78 56.6091 8.82C55.6091 7.86 54.1491 7.38 52.2291 7.38C50.3491 7.38 48.8891 7.9 47.8491 8.94C46.8491 9.94 46.2691 11.22 46.1091 12.78H37.8891Z" fill="#E1E4E8"/>
</svg>
