<svg width="50" height="50" viewBox="0 0 50 50" fill="none" xmlns="http://www.w3.org/2000/svg">
<rect width="50" height="50" rx="6" fill="#9218F2" fill-opacity="0.12"/>
<path d="M13.954 24.768C13.954 22.692 14.326 21.066 15.07 19.89C15.826 18.714 17.074 18.126 18.814 18.126C20.554 18.126 21.796 18.714 22.54 19.89C23.296 21.066 23.674 22.692 23.674 24.768C23.674 26.856 23.296 28.494 22.54 29.682C21.796 30.87 20.554 31.464 18.814 31.464C17.074 31.464 15.826 30.87 15.07 29.682C14.326 28.494 13.954 26.856 13.954 24.768ZM21.19 24.768C21.19 23.88 21.13 23.136 21.01 22.536C20.902 21.924 20.674 21.426 20.326 21.042C19.99 20.658 19.486 20.466 18.814 20.466C18.142 20.466 17.632 20.658 17.284 21.042C16.948 21.426 16.72 21.924 16.6 22.536C16.492 23.136 16.438 23.88 16.438 24.768C16.438 25.68 16.492 26.448 16.6 27.072C16.708 27.684 16.936 28.182 17.284 28.566C17.632 28.938 18.142 29.124 18.814 29.124C19.486 29.124 19.996 28.938 20.344 28.566C20.692 28.182 20.92 27.684 21.028 27.072C21.136 26.448 21.19 25.68 21.19 24.768ZM27.7867 24.552C26.5867 23.928 25.9867 22.962 25.9867 21.654C25.9867 21.006 26.1487 20.418 26.4727 19.89C26.8087 19.35 27.3067 18.924 27.9667 18.612C28.6387 18.288 29.4547 18.126 30.4147 18.126C31.3747 18.126 32.1847 18.288 32.8447 18.612C33.5167 18.924 34.0147 19.35 34.3387 19.89C34.6747 20.418 34.8427 21.006 34.8427 21.654C34.8427 22.314 34.6807 22.896 34.3567 23.4C34.0327 23.892 33.6007 24.276 33.0607 24.552C33.7207 24.84 34.2367 25.26 34.6087 25.812C34.9807 26.364 35.1667 27.018 35.1667 27.774C35.1667 28.59 34.9567 29.304 34.5367 29.916C34.1287 30.516 33.5647 30.978 32.8447 31.302C32.1247 31.626 31.3147 31.788 30.4147 31.788C29.5147 31.788 28.7047 31.626 27.9847 31.302C27.2767 30.978 26.7127 30.516 26.2927 29.916C25.8847 29.304 25.6807 28.59 25.6807 27.774C25.6807 27.018 25.8667 26.364 26.2387 25.812C26.6107 25.248 27.1267 24.828 27.7867 24.552ZM32.3947 22.014C32.3947 21.426 32.2147 20.97 31.8547 20.646C31.5067 20.322 31.0267 20.16 30.4147 20.16C29.8147 20.16 29.3347 20.322 28.9747 20.646C28.6267 20.97 28.4527 21.432 28.4527 22.032C28.4527 22.572 28.6327 23.004 28.9927 23.328C29.3647 23.652 29.8387 23.814 30.4147 23.814C30.9907 23.814 31.4647 23.652 31.8367 23.328C32.2087 22.992 32.3947 22.554 32.3947 22.014ZM30.4147 25.65C29.7307 25.65 29.1727 25.824 28.7407 26.172C28.3207 26.52 28.1107 27.018 28.1107 27.666C28.1107 28.266 28.3147 28.758 28.7227 29.142C29.1427 29.514 29.7067 29.7 30.4147 29.7C31.1227 29.7 31.6807 29.508 32.0887 29.124C32.4967 28.74 32.7007 28.254 32.7007 27.666C32.7007 27.03 32.4907 26.538 32.0707 26.19C31.6507 25.83 31.0987 25.65 30.4147 25.65Z" fill="#9218F2"/>
</svg>
