<svg width="50" height="50" viewBox="0 0 50 50" fill="none" xmlns="http://www.w3.org/2000/svg">
<rect width="50" height="50" rx="6" fill="#9218F2" fill-opacity="0.12"/>
<path d="M13.954 24.768C13.954 22.692 14.326 21.066 15.07 19.89C15.826 18.714 17.074 18.126 18.814 18.126C20.554 18.126 21.796 18.714 22.54 19.89C23.296 21.066 23.674 22.692 23.674 24.768C23.674 26.856 23.296 28.494 22.54 29.682C21.796 30.87 20.554 31.464 18.814 31.464C17.074 31.464 15.826 30.87 15.07 29.682C14.326 28.494 13.954 26.856 13.954 24.768ZM21.19 24.768C21.19 23.88 21.13 23.136 21.01 22.536C20.902 21.924 20.674 21.426 20.326 21.042C19.99 20.658 19.486 20.466 18.814 20.466C18.142 20.466 17.632 20.658 17.284 21.042C16.948 21.426 16.72 21.924 16.6 22.536C16.492 23.136 16.438 23.88 16.438 24.768C16.438 25.68 16.492 26.448 16.6 27.072C16.708 27.684 16.936 28.182 17.284 28.566C17.632 28.938 18.142 29.124 18.814 29.124C19.486 29.124 19.996 28.938 20.344 28.566C20.692 28.182 20.92 27.684 21.028 27.072C21.136 26.448 21.19 25.68 21.19 24.768ZM34.4107 20.556H28.5787V23.634C28.8307 23.322 29.1907 23.07 29.6587 22.878C30.1267 22.674 30.6247 22.572 31.1527 22.572C32.1127 22.572 32.8987 22.782 33.5107 23.202C34.1227 23.622 34.5667 24.162 34.8427 24.822C35.1187 25.47 35.2567 26.166 35.2567 26.91C35.2567 28.29 34.8607 29.4 34.0687 30.24C33.2887 31.08 32.1727 31.5 30.7207 31.5C29.3527 31.5 28.2607 31.158 27.4447 30.474C26.6287 29.79 26.1667 28.896 26.0587 27.792H28.5067C28.6147 28.272 28.8547 28.656 29.2267 28.944C29.6107 29.232 30.0967 29.376 30.6847 29.376C31.3927 29.376 31.9267 29.154 32.2867 28.71C32.6467 28.266 32.8267 27.678 32.8267 26.946C32.8267 26.202 32.6407 25.638 32.2687 25.254C31.9087 24.858 31.3747 24.66 30.6667 24.66C30.1627 24.66 29.7427 24.786 29.4067 25.038C29.0707 25.29 28.8307 25.626 28.6867 26.046H26.2747V18.342H34.4107V20.556Z" fill="#9218F2"/>
</svg>
