<svg width="50" height="50" viewBox="0 0 50 50" fill="none" xmlns="http://www.w3.org/2000/svg">
<rect width="50" height="50" rx="6" fill="#9218F2" fill-opacity="0.12"/>
<path d="M13.954 24.768C13.954 22.692 14.326 21.066 15.07 19.89C15.826 18.714 17.074 18.126 18.814 18.126C20.554 18.126 21.796 18.714 22.54 19.89C23.296 21.066 23.674 22.692 23.674 24.768C23.674 26.856 23.296 28.494 22.54 29.682C21.796 30.87 20.554 31.464 18.814 31.464C17.074 31.464 15.826 30.87 15.07 29.682C14.326 28.494 13.954 26.856 13.954 24.768ZM21.19 24.768C21.19 23.88 21.13 23.136 21.01 22.536C20.902 21.924 20.674 21.426 20.326 21.042C19.99 20.658 19.486 20.466 18.814 20.466C18.142 20.466 17.632 20.658 17.284 21.042C16.948 21.426 16.72 21.924 16.6 22.536C16.492 23.136 16.438 23.88 16.438 24.768C16.438 25.68 16.492 26.448 16.6 27.072C16.708 27.684 16.936 28.182 17.284 28.566C17.632 28.938 18.142 29.124 18.814 29.124C19.486 29.124 19.996 28.938 20.344 28.566C20.692 28.182 20.92 27.684 21.028 27.072C21.136 26.448 21.19 25.68 21.19 24.768ZM25.4827 28.944V26.964L31.3687 18.54H34.3027V26.748H35.8867V28.944H34.3027V31.5H31.7827V28.944H25.4827ZM31.9447 21.24L28.2547 26.748H31.9447V21.24Z" fill="#9218F2"/>
</svg>
