<svg width="50" height="50" viewBox="0 0 50 50" fill="none" xmlns="http://www.w3.org/2000/svg">
<rect width="50" height="50" rx="6" fill="#9218F2" fill-opacity="0.12"/>
<path d="M14.454 24.768C14.454 22.692 14.826 21.066 15.57 19.89C16.326 18.714 17.574 18.126 19.314 18.126C21.054 18.126 22.296 18.714 23.04 19.89C23.796 21.066 24.174 22.692 24.174 24.768C24.174 26.856 23.796 28.494 23.04 29.682C22.296 30.87 21.054 31.464 19.314 31.464C17.574 31.464 16.326 30.87 15.57 29.682C14.826 28.494 14.454 26.856 14.454 24.768ZM21.69 24.768C21.69 23.88 21.63 23.136 21.51 22.536C21.402 21.924 21.174 21.426 20.826 21.042C20.49 20.658 19.986 20.466 19.314 20.466C18.642 20.466 18.132 20.658 17.784 21.042C17.448 21.426 17.22 21.924 17.1 22.536C16.992 23.136 16.938 23.88 16.938 24.768C16.938 25.68 16.992 26.448 17.1 27.072C17.208 27.684 17.436 28.182 17.784 28.566C18.132 28.938 18.642 29.124 19.314 29.124C19.986 29.124 20.496 28.938 20.844 28.566C21.192 28.182 21.42 27.684 21.528 27.072C21.636 26.448 21.69 25.68 21.69 24.768ZM29.0067 27.81C29.1027 28.338 29.3187 28.746 29.6547 29.034C30.0027 29.31 30.4647 29.448 31.0407 29.448C31.7847 29.448 32.3247 29.142 32.6607 28.53C32.9967 27.906 33.1647 26.862 33.1647 25.398C32.8887 25.782 32.4987 26.082 31.9947 26.298C31.5027 26.514 30.9687 26.622 30.3927 26.622C29.6247 26.622 28.9287 26.466 28.3047 26.154C27.6927 25.83 27.2067 25.356 26.8467 24.732C26.4867 24.096 26.3067 23.328 26.3067 22.428C26.3067 21.096 26.7027 20.04 27.4947 19.26C28.2867 18.468 29.3667 18.072 30.7347 18.072C32.4387 18.072 33.6387 18.618 34.3347 19.71C35.0427 20.802 35.3967 22.446 35.3967 24.642C35.3967 26.202 35.2587 27.48 34.9827 28.476C34.7187 29.472 34.2567 30.228 33.5967 30.744C32.9487 31.26 32.0607 31.518 30.9327 31.518C30.0447 31.518 29.2887 31.35 28.6647 31.014C28.0407 30.666 27.5607 30.216 27.2247 29.664C26.9007 29.1 26.7147 28.482 26.6667 27.81H29.0067ZM30.9147 24.57C31.5387 24.57 32.0307 24.378 32.3907 23.994C32.7507 23.61 32.9307 23.094 32.9307 22.446C32.9307 21.738 32.7387 21.192 32.3547 20.808C31.9827 20.412 31.4727 20.214 30.8247 20.214C30.1767 20.214 29.6607 20.418 29.2767 20.826C28.9047 21.222 28.7187 21.75 28.7187 22.41C28.7187 23.046 28.8987 23.568 29.2587 23.976C29.6307 24.372 30.1827 24.57 30.9147 24.57Z" fill="#9218F2"/>
</svg>
