<svg width="50" height="50" viewBox="0 0 50 50" fill="none" xmlns="http://www.w3.org/2000/svg">
<rect width="50" height="50" rx="6" fill="#9218F2" fill-opacity="0.12"/>
<path d="M16.454 24.768C16.454 22.692 16.826 21.066 17.57 19.89C18.326 18.714 19.574 18.126 21.314 18.126C23.054 18.126 24.296 18.714 25.04 19.89C25.796 21.066 26.174 22.692 26.174 24.768C26.174 26.856 25.796 28.494 25.04 29.682C24.296 30.87 23.054 31.464 21.314 31.464C19.574 31.464 18.326 30.87 17.57 29.682C16.826 28.494 16.454 26.856 16.454 24.768ZM23.69 24.768C23.69 23.88 23.63 23.136 23.51 22.536C23.402 21.924 23.174 21.426 22.826 21.042C22.49 20.658 21.986 20.466 21.314 20.466C20.642 20.466 20.132 20.658 19.784 21.042C19.448 21.426 19.22 21.924 19.1 22.536C18.992 23.136 18.938 23.88 18.938 24.768C18.938 25.68 18.992 26.448 19.1 27.072C19.208 27.684 19.436 28.182 19.784 28.566C20.132 28.938 20.642 29.124 21.314 29.124C21.986 29.124 22.496 28.938 22.844 28.566C23.192 28.182 23.42 27.684 23.528 27.072C23.636 26.448 23.69 25.68 23.69 24.768ZM27.7847 20.7V18.378H32.1227V31.5H29.5307V20.7H27.7847Z" fill="#9218F2"/>
</svg>
