<svg width="50" height="50" viewBox="0 0 50 50" fill="none" xmlns="http://www.w3.org/2000/svg">
<rect width="50" height="50" rx="6" fill="#9218F2" fill-opacity="0.12"/>
<path d="M14.954 24.768C14.954 22.692 15.326 21.066 16.07 19.89C16.826 18.714 18.074 18.126 19.814 18.126C21.554 18.126 22.796 18.714 23.54 19.89C24.296 21.066 24.674 22.692 24.674 24.768C24.674 26.856 24.296 28.494 23.54 29.682C22.796 30.87 21.554 31.464 19.814 31.464C18.074 31.464 16.826 30.87 16.07 29.682C15.326 28.494 14.954 26.856 14.954 24.768ZM22.19 24.768C22.19 23.88 22.13 23.136 22.01 22.536C21.902 21.924 21.674 21.426 21.326 21.042C20.99 20.658 20.486 20.466 19.814 20.466C19.142 20.466 18.632 20.658 18.284 21.042C17.948 21.426 17.72 21.924 17.6 22.536C17.492 23.136 17.438 23.88 17.438 24.768C17.438 25.68 17.492 26.448 17.6 27.072C17.708 27.684 17.936 28.182 18.284 28.566C18.632 28.938 19.142 29.124 19.814 29.124C20.486 29.124 20.996 28.938 21.344 28.566C21.692 28.182 21.92 27.684 22.028 27.072C22.136 26.448 22.19 25.68 22.19 24.768ZM34.9427 20.286L30.1547 31.5H27.5987L32.4227 20.574H26.2667V18.414H34.9427V20.286Z" fill="#9218F2"/>
</svg>
