<svg width="50" height="50" viewBox="0 0 50 50" fill="none" xmlns="http://www.w3.org/2000/svg">
<rect width="50" height="50" rx="6" fill="#9218F2" fill-opacity="0.12"/>
<path d="M13.954 24.768C13.954 22.692 14.326 21.066 15.07 19.89C15.826 18.714 17.074 18.126 18.814 18.126C20.554 18.126 21.796 18.714 22.54 19.89C23.296 21.066 23.674 22.692 23.674 24.768C23.674 26.856 23.296 28.494 22.54 29.682C21.796 30.87 20.554 31.464 18.814 31.464C17.074 31.464 15.826 30.87 15.07 29.682C14.326 28.494 13.954 26.856 13.954 24.768ZM21.19 24.768C21.19 23.88 21.13 23.136 21.01 22.536C20.902 21.924 20.674 21.426 20.326 21.042C19.99 20.658 19.486 20.466 18.814 20.466C18.142 20.466 17.632 20.658 17.284 21.042C16.948 21.426 16.72 21.924 16.6 22.536C16.492 23.136 16.438 23.88 16.438 24.768C16.438 25.68 16.492 26.448 16.6 27.072C16.708 27.684 16.936 28.182 17.284 28.566C17.632 28.938 18.142 29.124 18.814 29.124C19.486 29.124 19.996 28.938 20.344 28.566C20.692 28.182 20.92 27.684 21.028 27.072C21.136 26.448 21.19 25.68 21.19 24.768ZM32.3947 21.654C32.2747 21.15 32.0647 20.772 31.7647 20.52C31.4767 20.268 31.0567 20.142 30.5047 20.142C29.6767 20.142 29.0647 20.478 28.6687 21.15C28.2847 21.81 28.0867 22.89 28.0747 24.39C28.3627 23.91 28.7827 23.538 29.3347 23.274C29.8867 22.998 30.4867 22.86 31.1347 22.86C31.9147 22.86 32.6047 23.028 33.2047 23.364C33.8047 23.7 34.2727 24.192 34.6087 24.84C34.9447 25.476 35.1127 26.244 35.1127 27.144C35.1127 27.996 34.9387 28.758 34.5907 29.43C34.2547 30.09 33.7567 30.606 33.0967 30.978C32.4367 31.35 31.6507 31.536 30.7387 31.536C29.4907 31.536 28.5067 31.26 27.7867 30.708C27.0787 30.156 26.5807 29.388 26.2927 28.404C26.0167 27.408 25.8787 26.184 25.8787 24.732C25.8787 22.536 26.2567 20.88 27.0127 19.764C27.7687 18.636 28.9627 18.072 30.5947 18.072C31.8547 18.072 32.8327 18.414 33.5287 19.098C34.2247 19.782 34.6267 20.634 34.7347 21.654H32.3947ZM30.5587 24.93C29.9227 24.93 29.3887 25.116 28.9567 25.488C28.5247 25.86 28.3087 26.4 28.3087 27.108C28.3087 27.816 28.5067 28.374 28.9027 28.782C29.3107 29.19 29.8807 29.394 30.6127 29.394C31.2607 29.394 31.7707 29.196 32.1427 28.8C32.5267 28.404 32.7187 27.87 32.7187 27.198C32.7187 26.502 32.5327 25.95 32.1607 25.542C31.8007 25.134 31.2667 24.93 30.5587 24.93Z" fill="#9218F2"/>
</svg>
