<svg width="50" height="50" viewBox="0 0 50 50" fill="none" xmlns="http://www.w3.org/2000/svg">
<rect width="50" height="50" rx="6" fill="#9218F2" fill-opacity="0.12"/>
<path d="M14.454 24.768C14.454 22.692 14.826 21.066 15.57 19.89C16.326 18.714 17.574 18.126 19.314 18.126C21.054 18.126 22.296 18.714 23.04 19.89C23.796 21.066 24.174 22.692 24.174 24.768C24.174 26.856 23.796 28.494 23.04 29.682C22.296 30.87 21.054 31.464 19.314 31.464C17.574 31.464 16.326 30.87 15.57 29.682C14.826 28.494 14.454 26.856 14.454 24.768ZM21.69 24.768C21.69 23.88 21.63 23.136 21.51 22.536C21.402 21.924 21.174 21.426 20.826 21.042C20.49 20.658 19.986 20.466 19.314 20.466C18.642 20.466 18.132 20.658 17.784 21.042C17.448 21.426 17.22 21.924 17.1 22.536C16.992 23.136 16.938 23.88 16.938 24.768C16.938 25.68 16.992 26.448 17.1 27.072C17.208 27.684 17.436 28.182 17.784 28.566C18.132 28.938 18.642 29.124 19.314 29.124C19.986 29.124 20.496 28.938 20.844 28.566C21.192 28.182 21.42 27.684 21.528 27.072C21.636 26.448 21.69 25.68 21.69 24.768ZM26.1267 21.834C26.1867 20.634 26.6067 19.71 27.3867 19.062C28.1787 18.402 29.2167 18.072 30.5007 18.072C31.3767 18.072 32.1267 18.228 32.7507 18.54C33.3747 18.84 33.8427 19.254 34.1547 19.782C34.4787 20.298 34.6407 20.886 34.6407 21.546C34.6407 22.302 34.4427 22.944 34.0467 23.472C33.6627 23.988 33.2007 24.336 32.6607 24.516V24.588C33.3567 24.804 33.8967 25.188 34.2807 25.74C34.6767 26.292 34.8747 27 34.8747 27.864C34.8747 28.584 34.7067 29.226 34.3707 29.79C34.0467 30.354 33.5607 30.798 32.9127 31.122C32.2767 31.434 31.5087 31.59 30.6087 31.59C29.2527 31.59 28.1487 31.248 27.2967 30.564C26.4447 29.88 25.9947 28.872 25.9467 27.54H28.3947C28.4187 28.128 28.6167 28.602 28.9887 28.962C29.3727 29.31 29.8947 29.484 30.5547 29.484C31.1667 29.484 31.6347 29.316 31.9587 28.98C32.2947 28.632 32.4627 28.188 32.4627 27.648C32.4627 26.928 32.2347 26.412 31.7787 26.1C31.3227 25.788 30.6147 25.632 29.6547 25.632H29.1327V23.562H29.6547C31.3587 23.562 32.2107 22.992 32.2107 21.852C32.2107 21.336 32.0547 20.934 31.7427 20.646C31.4427 20.358 31.0047 20.214 30.4287 20.214C29.8647 20.214 29.4267 20.37 29.1147 20.682C28.8147 20.982 28.6407 21.366 28.5927 21.834H26.1267Z" fill="#9218F2"/>
</svg>
