<svg width="26" height="25" viewBox="0 0 26 25" fill="none" xmlns="http://www.w3.org/2000/svg">
<path d="M23.093 1.49984C22.213 0.846504 20.9463 1.47317 20.9463 2.57984V2.71317C20.9463 4.27317 19.8263 5.71317 18.2663 5.87317C16.4663 6.05984 14.9463 4.6465 14.9463 2.8865V1.49984C14.9463 0.766504 14.3463 0.166504 13.613 0.166504H12.3863C11.653 0.166504 11.053 0.766504 11.053 1.49984V2.8865C11.053 3.93984 10.5063 4.87317 9.67967 5.39317C9.55967 5.47317 9.42634 5.53984 9.29301 5.6065C9.17301 5.67317 9.03967 5.7265 8.89301 5.7665C8.73301 5.81984 8.55967 5.85984 8.37301 5.87317C8.15967 5.89984 7.94634 5.89984 7.73301 5.87317C7.54634 5.85984 7.37301 5.81984 7.21301 5.7665C7.07967 5.7265 6.94634 5.67317 6.81301 5.6065C6.67967 5.53984 6.54634 5.47317 6.42634 5.39317C5.58634 4.8065 5.05301 3.79317 5.05301 2.71317V2.57984C5.05301 1.55317 3.95967 0.939837 3.09301 1.37984C3.07967 1.39317 3.06634 1.39317 3.05301 1.4065C2.99967 1.43317 2.95967 1.45984 2.90634 1.49984C2.86634 1.53984 2.81301 1.5665 2.77301 1.6065C2.39967 1.89984 2.06634 2.23317 1.78634 2.59317C1.63967 2.75317 1.51967 2.9265 1.41301 3.09984C1.39967 3.11317 1.38634 3.1265 1.37301 3.15317C1.25301 3.3265 1.14634 3.5265 1.05301 3.71317C1.02634 3.73984 1.01301 3.75317 1.01301 3.77984C0.933008 3.93984 0.853008 4.09984 0.799674 4.27317C0.759674 4.33984 0.746341 4.39317 0.719674 4.45984C0.639674 4.65984 0.586341 4.85984 0.533008 5.05984C0.479675 5.2465 0.439674 5.4465 0.413008 5.6465C0.386341 5.79317 0.373008 5.93984 0.359674 6.09984C0.346341 6.2865 0.333008 6.47317 0.333008 6.65984V18.3398C0.333008 21.9265 3.23967 24.8332 6.82634 24.8332H19.173C22.7597 24.8332 25.6663 21.9265 25.6663 18.3398V6.65984C25.6663 4.53984 24.653 2.6865 23.093 1.49984ZM12.9997 19.8332C10.933 19.8332 9.66634 18.8065 9.66634 17.1532C9.66634 16.2465 10.133 15.4598 10.9463 14.9932C10.3597 14.5798 9.97301 13.9665 9.97301 13.1265C9.97301 11.3932 11.3597 10.4998 12.9997 10.4998C14.6397 10.4998 16.013 11.3932 16.013 13.1265C16.013 13.9665 15.6397 14.5798 15.0397 14.9932C15.8663 15.4598 16.333 16.2465 16.333 17.1532C16.333 18.8065 15.053 19.8332 12.9997 19.8332Z" fill="#302A39"/>
</svg>
