<svg width="24" height="24" viewBox="0 0 24 24" fill="none" xmlns="http://www.w3.org/2000/svg">
<mask id="path-1-inside-1_1241_1682" fill="white">
<path d="M9.00043 17.75C8.59043 17.75 8.25043 17.41 8.25043 17V12.81L7.53043 13.53C7.24043 13.82 6.76043 13.82 6.47043 13.53C6.18043 13.24 6.18043 12.76 6.47043 12.47L8.47043 10.47C8.68043 10.26 9.01043 10.19 9.29043 10.31C9.57043 10.42 9.75043 10.7 9.75043 11V17C9.75043 17.41 9.41043 17.75 9.00043 17.75Z"/>
</mask>
<path d="M9.00043 17.75C8.59043 17.75 8.25043 17.41 8.25043 17V12.81L7.53043 13.53C7.24043 13.82 6.76043 13.82 6.47043 13.53C6.18043 13.24 6.18043 12.76 6.47043 12.47L8.47043 10.47C8.68043 10.26 9.01043 10.19 9.29043 10.31C9.57043 10.42 9.75043 10.7 9.75043 11V17C9.75043 17.41 9.41043 17.75 9.00043 17.75Z" fill="#9218F2"/>
<path d="M8.25043 12.81H9.75043V9.18867L7.18977 11.7493L8.25043 12.81ZM7.53043 13.53L6.46977 12.4693L6.46977 12.4693L7.53043 13.53ZM6.47043 12.47L5.40977 11.4093L5.40977 11.4093L6.47043 12.47ZM8.47043 10.47L9.53109 11.5306V11.5306L8.47043 10.47ZM9.29043 10.31L8.69955 11.6887L8.72062 11.6977L8.74195 11.7061L9.29043 10.31ZM9.00043 16.25C9.41886 16.25 9.75043 16.5816 9.75043 17H6.75043C6.75043 18.2384 7.762 19.25 9.00043 19.25V16.25ZM9.75043 17V12.81H6.75043V17H9.75043ZM7.18977 11.7493L6.46977 12.4693L8.59109 14.5906L9.31109 13.8706L7.18977 11.7493ZM6.46977 12.4693C6.76556 12.1735 7.2353 12.1735 7.53109 12.4693L5.40977 14.5906C6.28556 15.4664 7.7153 15.4664 8.59109 14.5906L6.46977 12.4693ZM7.53109 12.4693C7.82688 12.7651 7.82688 13.2349 7.53109 13.5306L5.40977 11.4093C4.53398 12.2851 4.53398 13.7149 5.40977 14.5906L7.53109 12.4693ZM7.53109 13.5306L9.53109 11.5306L7.40977 9.40933L5.40977 11.4093L7.53109 13.5306ZM9.53109 11.5306C9.31964 11.7421 8.99909 11.8171 8.69955 11.6887L9.88131 8.93127C9.02177 8.5629 8.04122 8.77788 7.40977 9.40933L9.53109 11.5306ZM8.74195 11.7061C8.4145 11.5775 8.25043 11.28 8.25043 11H11.2504C11.2504 10.12 10.7264 9.2625 9.83891 8.91386L8.74195 11.7061ZM8.25043 11V17H11.2504V11H8.25043ZM8.25043 17C8.25043 16.5816 8.582 16.25 9.00043 16.25V19.25C10.2389 19.25 11.2504 18.2384 11.2504 17H8.25043Z" fill="#9218F2" mask="url(#path-1-inside-1_1241_1682)"/>
<mask id="path-3-inside-2_1241_1682" fill="white">
<path d="M11.0004 13.7499C10.8104 13.7499 10.6204 13.6799 10.4704 13.5299L8.47043 11.5299C8.18043 11.2399 8.18043 10.7599 8.47043 10.4699C8.76043 10.1799 9.24043 10.1799 9.53043 10.4699L11.5304 12.4699C11.8204 12.7599 11.8204 13.2399 11.5304 13.5299C11.3804 13.6799 11.1904 13.7499 11.0004 13.7499Z"/>
</mask>
<path d="M11.0004 13.7499C10.8104 13.7499 10.6204 13.6799 10.4704 13.5299L8.47043 11.5299C8.18043 11.2399 8.18043 10.7599 8.47043 10.4699C8.76043 10.1799 9.24043 10.1799 9.53043 10.4699L11.5304 12.4699C11.8204 12.7599 11.8204 13.2399 11.5304 13.5299C11.3804 13.6799 11.1904 13.7499 11.0004 13.7499Z" fill="#9218F2"/>
<path d="M10.4704 13.5299L9.40977 14.5906L10.4704 13.5299ZM8.47043 11.5299L9.53109 10.4693L8.47043 11.5299ZM9.53043 10.4699L8.46977 11.5306L9.53043 10.4699ZM11.5304 12.4699L12.5911 11.4093L11.5304 12.4699ZM11.0004 12.2499C11.1868 12.2499 11.385 12.3232 11.5311 12.4693L9.40977 14.5906C9.8559 15.0367 10.4341 15.2499 11.0004 15.2499V12.2499ZM11.5311 12.4693L9.53109 10.4693L7.40977 12.5906L9.40977 14.5906L11.5311 12.4693ZM9.53109 10.4693C9.82688 10.7651 9.82688 11.2348 9.53109 11.5306L7.40977 9.40928C6.53398 10.2851 6.53398 11.7148 7.40977 12.5906L9.53109 10.4693ZM9.53109 11.5306C9.2353 11.8264 8.76556 11.8264 8.46977 11.5306L10.5911 9.40928C9.7153 8.53349 8.28556 8.53349 7.40977 9.40928L9.53109 11.5306ZM8.46977 11.5306L10.4698 13.5306L12.5911 11.4093L10.5911 9.40928L8.46977 11.5306ZM10.4698 13.5306C10.174 13.2348 10.174 12.7651 10.4698 12.4693L12.5911 14.5906C13.4669 13.7148 13.4669 12.2851 12.5911 11.4093L10.4698 13.5306ZM10.4698 12.4693C10.6159 12.3232 10.8141 12.2499 11.0004 12.2499V15.2499C11.5668 15.2499 12.145 15.0367 12.5911 14.5906L10.4698 12.4693Z" fill="#9218F2" mask="url(#path-3-inside-2_1241_1682)"/>
<mask id="path-5-inside-3_1241_1682" fill="white">
<path d="M15 22.75H9C3.57 22.75 1.25 20.43 1.25 15V9C1.25 3.57 3.57 1.25 9 1.25H14C14.41 1.25 14.75 1.59 14.75 2C14.75 2.41 14.41 2.75 14 2.75H9C4.39 2.75 2.75 4.39 2.75 9V15C2.75 19.61 4.39 21.25 9 21.25H15C19.61 21.25 21.25 19.61 21.25 15V10C21.25 9.59 21.59 9.25 22 9.25C22.41 9.25 22.75 9.59 22.75 10V15C22.75 20.43 20.43 22.75 15 22.75Z"/>
</mask>
<path d="M15 22.75H9C3.57 22.75 1.25 20.43 1.25 15V9C1.25 3.57 3.57 1.25 9 1.25H14C14.41 1.25 14.75 1.59 14.75 2C14.75 2.41 14.41 2.75 14 2.75H9C4.39 2.75 2.75 4.39 2.75 9V15C2.75 19.61 4.39 21.25 9 21.25H15C19.61 21.25 21.25 19.61 21.25 15V10C21.25 9.59 21.59 9.25 22 9.25C22.41 9.25 22.75 9.59 22.75 10V15C22.75 20.43 20.43 22.75 15 22.75Z" fill="#9218F2"/>
<path d="M15 21.25H9V24.25H15V21.25ZM9 21.25C6.45719 21.25 4.99977 20.701 4.14941 19.8506C3.29905 19.0002 2.75 17.5428 2.75 15H-0.25C-0.25 17.8872 0.360951 20.3048 2.02809 21.9719C3.69523 23.639 6.11281 24.25 9 24.25V21.25ZM2.75 15V9H-0.25V15H2.75ZM2.75 9C2.75 6.45719 3.29905 4.99977 4.14941 4.14941C4.99977 3.29905 6.45719 2.75 9 2.75V-0.25C6.11281 -0.25 3.69523 0.360951 2.02809 2.02809C0.360951 3.69523 -0.25 6.11281 -0.25 9H2.75ZM9 2.75H14V-0.25H9V2.75ZM14 2.75C13.5816 2.75 13.25 2.41843 13.25 2H16.25C16.25 0.761573 15.2384 -0.25 14 -0.25V2.75ZM13.25 2C13.25 1.58157 13.5816 1.25 14 1.25V4.25C15.2384 4.25 16.25 3.23843 16.25 2H13.25ZM14 1.25H9V4.25H14V1.25ZM9 1.25C6.58917 1.25 4.50797 1.66321 3.08559 3.08559C1.66321 4.50797 1.25 6.58917 1.25 9H4.25C4.25 6.80083 4.65679 5.75703 5.20691 5.20691C5.75703 4.65679 6.80083 4.25 9 4.25V1.25ZM1.25 9V15H4.25V9H1.25ZM1.25 15C1.25 17.4108 1.66321 19.492 3.08559 20.9144C4.50797 22.3368 6.58917 22.75 9 22.75V19.75C6.80083 19.75 5.75703 19.3432 5.20691 18.7931C4.65679 18.243 4.25 17.1992 4.25 15H1.25ZM9 22.75H15V19.75H9V22.75ZM15 22.75C17.4108 22.75 19.492 22.3368 20.9144 20.9144C22.3368 19.492 22.75 17.4108 22.75 15H19.75C19.75 17.1992 19.3432 18.243 18.7931 18.7931C18.243 19.3432 17.1992 19.75 15 19.75V22.75ZM22.75 15V10H19.75V15H22.75ZM22.75 10C22.75 10.4184 22.4184 10.75 22 10.75V7.75C20.7616 7.75 19.75 8.76157 19.75 10H22.75ZM22 10.75C21.5816 10.75 21.25 10.4184 21.25 10H24.25C24.25 8.76157 23.2384 7.75 22 7.75V10.75ZM21.25 10V15H24.25V10H21.25ZM21.25 15C21.25 17.5428 20.701 19.0002 19.8506 19.8506C19.0002 20.701 17.5428 21.25 15 21.25V24.25C17.8872 24.25 20.3048 23.639 21.9719 21.9719C23.639 20.3048 24.25 17.8872 24.25 15H21.25Z" fill="#9218F2" mask="url(#path-5-inside-3_1241_1682)"/>
<path d="M22 10.75H18C14.58 10.75 13.25 9.41999 13.25 5.99999V1.99999C13.25 1.69999 13.43 1.41999 13.71 1.30999C13.99 1.18999 14.31 1.25999 14.53 1.46999L22.53 9.46999C22.74 9.67999 22.81 10.01 22.69 10.29C22.57 10.57 22.3 10.75 22 10.75ZM14.75 3.80999V5.99999C14.75 8.57999 15.42 9.24999 18 9.24999H20.19L14.75 3.80999Z" fill="#9218F2"/>
</svg>
