<svg width="28" height="28" viewBox="0 0 28 28" fill="none" xmlns="http://www.w3.org/2000/svg">
<path d="M27.3334 19.587C27.3334 24.4403 24.4401 27.3337 19.5868 27.3337H18.0001C17.2667 27.3337 16.6667 26.7337 16.6667 26.0003V18.307C16.6667 17.947 16.9601 17.6403 17.3201 17.6403L19.6667 17.6003C19.8534 17.587 20.0134 17.4537 20.0534 17.267L20.5201 14.7203C20.5601 14.4803 20.3734 14.2537 20.1201 14.2537L17.2801 14.2937C16.9067 14.2937 16.6134 14.0003 16.6001 13.6403L16.5468 10.3737C16.5468 10.1603 16.7201 9.97367 16.9467 9.97367L20.1467 9.92033C20.3734 9.92033 20.5468 9.74701 20.5468 9.52035L20.4934 6.32031C20.4934 6.09365 20.3201 5.92033 20.0934 5.92033L16.4934 5.97367C14.2801 6.01367 12.5201 7.82699 12.5601 10.0403L12.6267 13.707C12.6401 14.0803 12.3468 14.3737 11.9734 14.387L10.3734 14.4137C10.1467 14.4137 9.97343 14.587 9.97343 14.8136L10.0134 17.347C10.0134 17.5737 10.1867 17.747 10.4134 17.747L12.0134 17.7203C12.3868 17.7203 12.6801 18.0137 12.6934 18.3737L12.8134 25.9737C12.8267 26.7203 12.2267 27.3337 11.4801 27.3337H8.41341C3.56008 27.3337 0.666748 24.4403 0.666748 19.5737V8.41366C0.666748 3.56032 3.56008 0.666992 8.41341 0.666992H19.5868C24.4401 0.666992 27.3334 3.56032 27.3334 8.41366V19.587Z" fill="white"/>
</svg>
