<svg width="28" height="28" viewBox="0 0 28 28" fill="none" xmlns="http://www.w3.org/2000/svg">
<path d="M19.5868 0.666992H8.41341C3.56008 0.666992 0.666748 3.56033 0.666748 8.41366V19.5737C0.666748 24.4403 3.56008 27.3337 8.41341 27.3337H19.5734C24.4268 27.3337 27.3201 24.4403 27.3201 19.587V8.41366C27.3334 3.56033 24.4401 0.666992 19.5868 0.666992ZM14.0001 19.1737C11.1467 19.1737 8.82675 16.8537 8.82675 14.0003C8.82675 11.147 11.1467 8.82699 14.0001 8.82699C16.8534 8.82699 19.1734 11.147 19.1734 14.0003C19.1734 16.8537 16.8534 19.1737 14.0001 19.1737ZM21.8934 7.17366C21.8267 7.33366 21.7334 7.48033 21.6134 7.61366C21.4801 7.73366 21.3334 7.82699 21.1734 7.89366C21.0134 7.96033 20.8401 8.00033 20.6667 8.00033C20.3067 8.00033 19.9734 7.86699 19.7201 7.61366C19.6001 7.48033 19.5067 7.33366 19.4401 7.17366C19.3734 7.01366 19.3334 6.84033 19.3334 6.66699C19.3334 6.49366 19.3734 6.32033 19.4401 6.16033C19.5067 5.98699 19.6001 5.85366 19.7201 5.72033C20.0268 5.41366 20.4934 5.26699 20.9201 5.36033C21.0134 5.37366 21.0934 5.40033 21.1734 5.44033C21.2534 5.46699 21.3334 5.50699 21.4134 5.56033C21.4801 5.60033 21.5467 5.66699 21.6134 5.72033C21.7334 5.85366 21.8267 5.98699 21.8934 6.16033C21.9601 6.32033 22.0001 6.49366 22.0001 6.66699C22.0001 6.84033 21.9601 7.01366 21.8934 7.17366Z" fill="white"/>
</svg>
