<svg width="34" height="30" viewBox="0 0 34 30" fill="none" xmlns="http://www.w3.org/2000/svg">
<rect width="34" height="30" fill="#F5F5F5"/>
<rect width="21887" height="9283" transform="translate(-1709 -6618)" fill="#E1E4E8"/>
<g clip-path="url(#clip0_266_164)">
<rect width="1440" height="4880" transform="translate(-605 -4418)" fill="white"/>
<path d="M-605 -30C-605 -65.3462 -576.346 -94 -541 -94H771C806.346 -94 835 -65.3462 835 -30V462H-605V-30Z" fill="#302A39"/>
<path d="M25.3333 0.833008H8.66659C3.66659 0.833008 0.333252 3.33301 0.333252 9.16634V20.833C0.333252 26.6663 3.66659 29.1663 8.66659 29.1663H25.3333C30.3333 29.1663 33.6666 26.6663 33.6666 20.833V9.16634C33.6666 3.33301 30.3333 0.833008 25.3333 0.833008ZM26.1166 10.983L20.8999 15.1497C19.7999 16.033 18.3999 16.4663 16.9999 16.4663C15.5999 16.4663 14.1833 16.033 13.0999 15.1497L7.88325 10.983C7.34992 10.5497 7.26659 9.74967 7.68325 9.21634C8.11659 8.68301 8.89992 8.58301 9.43325 9.01634L14.6499 13.183C15.9166 14.1997 18.0666 14.1997 19.3333 13.183L24.5499 9.01634C25.0833 8.58301 25.8833 8.66634 26.2999 9.21634C26.7333 9.74967 26.6499 10.5497 26.1166 10.983Z" fill="white"/>
</g>
<defs>
<clipPath id="clip0_266_164">
<rect width="1440" height="4880" fill="white" transform="translate(-605 -4418)"/>
</clipPath>
</defs>
</svg>
