<svg width="30" height="36" viewBox="0 0 30 36" fill="none" xmlns="http://www.w3.org/2000/svg">
<path d="M29.3667 12.0837C27.6167 4.38366 20.9 0.916992 15 0.916992C15 0.916992 15 0.916992 14.9834 0.916992C9.10004 0.916992 2.3667 4.36699 0.616703 12.067C-1.3333 20.667 3.93337 27.9503 8.70004 32.5337C10.4667 34.2337 12.7334 35.0837 15 35.0837C17.2667 35.0837 19.5334 34.2337 21.2834 32.5337C26.05 27.9503 31.3167 20.6837 29.3667 12.0837ZM15 20.4337C12.1 20.4337 9.75004 18.0837 9.75004 15.1837C9.75004 12.2837 12.1 9.93366 15 9.93366C17.9 9.93366 20.25 12.2837 20.25 15.1837C20.25 18.0837 17.9 20.4337 15 20.4337Z" fill="white"/>
</svg>
