<svg width="34" height="34" viewBox="0 0 34 34" fill="none" xmlns="http://www.w3.org/2000/svg">
<path d="M33.6332 16.0171C33.0666 6.35041 24.2832 -1.09958 14.1666 0.567091C7.19991 1.71709 1.61658 7.36706 0.533251 14.3337C-0.100082 18.3671 0.733288 22.1837 2.54995 25.3337L1.0666 30.8504C0.733264 32.1004 1.88323 33.2337 3.11656 32.8837L8.54991 31.3837C11.0166 32.8337 13.8999 33.6671 16.9832 33.6671C26.3832 33.6671 34.1832 25.3837 33.6332 16.0171ZM25.1333 23.2004C24.9833 23.5004 24.7999 23.7838 24.5666 24.0504C24.1499 24.5004 23.6999 24.8337 23.1999 25.0337C22.6999 25.2504 22.1499 25.3504 21.5666 25.3504C20.7166 25.3504 19.7999 25.1504 18.8499 24.7338C17.8832 24.3171 16.9333 23.7671 15.9833 23.0837C15.0166 22.3837 14.1166 21.6004 13.2499 20.7504C12.3833 19.8837 11.6166 18.967 10.9166 18.017C10.2332 17.067 9.68325 16.1171 9.28325 15.1671C8.88325 14.2171 8.68328 13.3004 8.68328 12.4337C8.68328 11.8671 8.78326 11.3171 8.98326 10.8171C9.18326 10.3004 9.49996 9.83375 9.94996 9.41709C10.4833 8.88375 11.0666 8.63375 11.6833 8.63375C11.9166 8.63375 12.1499 8.68375 12.3665 8.78375C12.5832 8.88375 12.7833 9.03374 12.9333 9.25041L14.8665 11.9837C15.0165 12.2004 15.1332 12.3837 15.1999 12.5671C15.2832 12.7504 15.3166 12.9171 15.3166 13.0837C15.3166 13.2837 15.2499 13.4838 15.1333 13.6838C15.0166 13.8837 14.8666 14.0837 14.6666 14.2837L14.0332 14.9504C13.9332 15.0504 13.9 15.1504 13.9 15.2837C13.9 15.3504 13.9165 15.4171 13.9332 15.4837C13.9665 15.5504 13.9833 15.6004 13.9999 15.6504C14.1499 15.9337 14.4166 16.2837 14.7832 16.717C15.1666 17.1504 15.5666 17.6004 16 18.0337C16.45 18.4837 16.8833 18.8837 17.3333 19.267C17.7666 19.6337 18.1332 19.8837 18.4166 20.0337C18.4666 20.0504 18.5166 20.0837 18.5666 20.1004C18.6333 20.1337 18.6999 20.1337 18.7833 20.1337C18.9333 20.1337 19.0333 20.0837 19.1333 19.9837L19.7665 19.3504C19.9832 19.1337 20.1833 18.9837 20.3666 18.8837C20.5666 18.7671 20.7499 18.7004 20.9666 18.7004C21.1333 18.7004 21.2999 18.7337 21.4833 18.8171C21.6666 18.9004 21.8666 19.0004 22.0666 19.1504L24.8333 21.1171C25.0499 21.2671 25.1999 21.4504 25.2999 21.6504C25.3832 21.8671 25.4333 22.0671 25.4333 22.3004C25.3333 22.5837 25.2666 22.9004 25.1333 23.2004Z" fill="white"/>
</svg>
